<?xml version="1.0" encoding="UTF-8"?>
<svg height="360" viewBox="0 0 940 288" width="1176" xmlns="http://www.w3.org/2000/svg" xmlns:xlink="http://www.w3.org/1999/xlink">
 <linearGradient id="a">
  <stop offset="0" stop-color="#f5f5f5"/>
  <stop offset=".0147" stop-color="#d5d5d5"/>
  <stop offset=".0425" stop-color="#9f9f9f"/>
  <stop offset=".0632" stop-color="#7d7d7d"/>
  <stop offset=".0745" stop-color="#707070"/>
  <stop offset=".913" stop-color="#707070"/>
  <stop offset=".925" stop-color="#7a7a7a"/>
  <stop offset=".9455" stop-color="#949494"/>
  <stop offset=".9716" stop-color="#bfbfbf"/>
  <stop offset="1" stop-color="#f5f5f5"/>
 </linearGradient>
 <linearGradient id="b">
  <stop offset="0" stop-color="#f5f5f5"/>
  <stop offset=".0106" stop-color="#f2f0f2"/>
  <stop offset=".0222" stop-color="#eae0e8"/>
  <stop offset=".0344" stop-color="#dcc8da"/>
  <stop offset=".047" stop-color="#caa8c9"/>
  <stop offset=".0598" stop-color="#b480b2"/>
  <stop offset=".0729" stop-color="#985299"/>
  <stop offset=".0859" stop-color="#7a2280"/>
  <stop offset=".0913" stop-color="#6d0f76"/>
  <stop offset=".1047" stop-color="#670e76"/>
  <stop offset=".1229" stop-color="#590d76"/>
  <stop offset=".1437" stop-color="#410a78"/>
  <stop offset=".1664" stop-color="#21057a"/>
  <stop offset=".1712" stop-color="#19037b"/>
  <stop offset=".2854" stop-color="#1a9bc0"/>
  <stop offset=".4109" stop-color="#168739"/>
  <stop offset=".5593" stop-color="#f7f619"/>
  <stop offset=".5781" stop-color="#f7ee18"/>
  <stop offset=".6075" stop-color="#f8d917"/>
  <stop offset=".6437" stop-color="#f8b615"/>
  <stop offset=".6853" stop-color="#f88512"/>
  <stop offset=".7308" stop-color="#fa470f"/>
  <stop offset=".7704" stop-color="#fb0f0c"/>
  <stop offset=".9131" stop-color="#ac0f0d"/>
  <stop offset="1" stop-color="#f5f5f5"/>
 </linearGradient>
 <marker id="c" orient="auto" overflow="visible">
  <path d="m4.2 0-5.9-1.9v3.8z"/>
 </marker>
 <path d="m0 0h940v288h-940z" fill="#f5f5f5"/>
 <path d="m117 108v-95.45h693v95.45l-384.23 21.56v16.61h-16.99v-16.61z" fill="url(#a)"/>
 <path d="m87 47h750v33h-750z" fill="url(#b)"/>
 <g fill="none" stroke="#000">
  <g marker-end="url(#c)" stroke-width="2.55">
   <path d="m136.46 70.36h-45.76"/>
   <path d="m806.96 70.08h45.8"/>
  </g>
  <path d="m250.5 88.09h445" stroke="#fff" stroke-dasharray="1,87.63" stroke-width="15.16"/>
  <path d="m88.76 145.9h834.04"/>
  <path d="m88.05 141.05v10.19m65.47-10.19v29.42m68.01-29.42v32.81m132.21-32.81v53.14m38.07-53.14v11.38h-17.66v18.82m23.34-30.2v8.37m5.69 0v-8.37m5.36 0v49.34m17.42-49.34v29.62m117.57-29.62v47.18h14.24m132 0h-67.77m124.77 0h62.54v-47.18m-175.83 0v47.18m26.29-47.18v21.95m56.63-21.95v21.95m44.95-21.95v10.19m59.37-10.19v47.18m102.28 0v-47.18" stroke="#7f7f7f"/>
  <g stroke="#919191">
   <path d="m98.75 252.32h800" stroke-dasharray=".58,37.38" stroke-width="6.66"/>
   <path d="m88 216.21h835.25m0 32.77h-835.25m0 .02v-36m0-11v-36.13m38 83.13v-72m37.96 72v-72m37.96 72v-36m0-11v-25m37.95 72v-64m37.96 64v-36m0-11v-17m37.96 64v-36m0-11v-17m37.95 64v-48.17m37.96 48.17v-48.17m37.96 48.17v-36m0-11v-12m37.95 59v-52.08m37.96 52.08v-52.08m37.96 52.08v-36m0-11v-6m37.95 53v-36m0-11v-6m37.96 53v-53m37.96 53v-36m0-11v-6m37.95 53v-53m37.96 53v-53m37.96 53v-36m0-11v-12.46m37.96 59.46v-57.66m37.95 57.66v-55.11m37.96 55.11v-36m0-11v-8.11m38.11 55.11v-55.11" stroke-width=".58"/>
  </g>
 </g>
 <path d="m85 223h840v19h-840z" fill="#f5f5f5"/>
 <g font-family="Verdana,sans-serif" font-size="9.25">
  <g font-size="14">
   <text x="805.9" y="62.21">Infrarrojo</text>
   <text x="72.84" y="62.21">Ultravioleta</text>
   <g fill="#fff">
    <text font-size="20" text-anchor="middle" x="477.22" y="37.71">Espectro visible por el ojo humano (Luz)</text>
    <text x="168.98" y="95.11">400 nm</text>
    <text x="257.37" y="95.11">450 nm</text>
    <text x="434.17" y="95.11">550 nm</text>
    <text x="345.77" y="95.11">500 nm</text>
    <text x="522.56" y="95.11">600 nm</text>
    <text x="610.96" y="95.11">650 nm</text>
    <text x="699.36" y="95.11">700 nm</text>
   </g>
   <text x="787.75" y="95.11">750 nm</text>
  </g>
  <text x="102.15" y="160.33">Rayos<tspan dy="9.25" x="102.15">cósmicos</tspan></text>
  <text x="164.87" y="160.33">Rayos<tspan dy="9.25" x="164.87">gamma</tspan></text>
  <text x="268" y="163">Rayos X</text>
  <text x="377.31" y="162.98">UV-<tspan dy="8.75" x="377.31">C/B/A</tspan></text>
  <text transform="scale(.9 1)" x="395" y="185.44">Ultravioleta</text>
  <text x="459" y="160.33">Infrarrojo</text>
  <text x="547.2" y="160.06">Radar</text>
  <text x="562" y="190.26">Microondas</text>
  <text x="635.77" y="160.06">UHF</text>
  <text x="649.77" y="173.1">VHF</text>
  <text x="690" y="173.1">Onda corta</text>
  <text x="736" y="160.06">Onda media</text>
  <text x="751" y="173.1">Onda larga</text>
  <text x="700" y="190.36">Radio</text>
  <text x="830" y="160.06">Frecuencia<tspan dy="9.5" x="830">extremadamente</tspan><tspan dy="9.5" x="830">baja</tspan></text>
  <text x="77.94" y="211.21">1 fm</text>
  <text x="192.94" y="211.21">1 pm</text>
  <text x="270.94" y="211.21">1 Å</text>
  <text x="305.94" y="211.21">1 nm</text>
  <text x="418.94" y="211.21">1 µm</text>
  <text x="530.84" y="211.21">1 mm</text>
  <text x="569.13" y="211.21">1 cm</text>
  <text x="647.86" y="211.21">1 m</text>
  <text x="761.34" y="211.21">1 km</text>
  <text x="874.34" y="211.21">1 Mm</text>
  <text x="7.96" y="231.42">Longitud<tspan dy="9.25" x="7.96">de onda (m)</tspan></text>
  <text transform="scale(.9 1)" x="8.84" y="264">Frecuencia (Hz)</text>
  <g font-size="10">
   <text x="77.78" y="237.56">10<tspan dy="-6.4" font-size="8">–15</tspan></text>
   <text x="115.34" y="237.56">10<tspan dy="-6.4" font-size="8">–14</tspan></text>
   <text x="152.9" y="237.56">10<tspan dy="-6.4" font-size="8">–13</tspan></text>
   <text x="190.47" y="237.56">10<tspan dy="-6.4" font-size="8">–12</tspan></text>
   <text x="228.8" y="237.56">10<tspan dy="-6.4" font-size="8">–11</tspan></text>
   <text x="265.59" y="237.56">10<tspan dy="-6.4" font-size="8">–10</tspan></text>
   <text x="308.89" y="237.56">10<tspan dy="-6.4" font-size="8">–9</tspan></text>
   <text x="346.46" y="237.56">10<tspan dy="-6.4" font-size="8">–8</tspan></text>
   <text x="384.02" y="237.56">10<tspan dy="-6.4" font-size="8">–7</tspan></text>
   <text x="421.58" y="237.56">10<tspan dy="-6.4" font-size="8">–6</tspan></text>
   <text x="459.15" y="237.56">10<tspan dy="-6.4" font-size="8">–5</tspan></text>
   <text x="496.71" y="237.56">10<tspan dy="-6.4" font-size="8">–4</tspan></text>
   <text x="534.28" y="237.56">10<tspan dy="-6.4" font-size="8">–3</tspan></text>
   <text x="571.84" y="237.56">10<tspan dy="-6.4" font-size="8">–2</tspan></text>
   <text x="609.41" y="237.56">10<tspan dy="-6.4" font-size="8">–1</tspan></text>
   <text x="650.4" y="237.56">10<tspan dy="-6.4" font-size="8">0</tspan></text>
   <text x="687.97" y="237.56">10<tspan dy="-6.4" font-size="8">1</tspan></text>
   <text x="725.53" y="237.56">10<tspan dy="-6.4" font-size="8">2</tspan></text>
   <text x="763.09" y="237.56">10<tspan dy="-6.4" font-size="8">3</tspan></text>
   <text x="800.66" y="237.56">10<tspan dy="-6.4" font-size="8">4</tspan></text>
   <text x="838.22" y="237.56">10<tspan dy="-6.4" font-size="8">5</tspan></text>
   <text x="875.57" y="237.56">10<tspan dy="-6.4" font-size="8">6</tspan></text>
   <text x="912.92" y="237.56">10<tspan dy="-6.4" font-size="8">7</tspan></text>
   <text x="86.97" y="268.23">10<tspan dy="-6.4" font-size="8">23</tspan></text>
   <text x="124.8" y="268.23">10<tspan dy="-6.4" font-size="8">22</tspan></text>
   <text x="162.76" y="268.23">10<tspan dy="-6.4" font-size="8">21</tspan></text>
   <text x="201.06" y="268.23">10<tspan dy="-6.4" font-size="8">20</tspan></text>
   <text x="238.89" y="268.23">10<tspan dy="-6.4" font-size="8">19</tspan></text>
   <text x="276.85" y="268.23">10<tspan dy="-6.4" font-size="8">18</tspan></text>
   <text x="314.81" y="268.23">10<tspan dy="-6.4" font-size="8">17</tspan></text>
   <text x="352.76" y="268.23">10<tspan dy="-6.4" font-size="8">16</tspan></text>
   <text x="390.72" y="268.23">10<tspan dy="-6.4" font-size="8">15</tspan></text>
   <text x="428.67" y="268.23">10<tspan dy="-6.4" font-size="8">14</tspan></text>
   <text x="466.63" y="268.23">10<tspan dy="-6.4" font-size="8">13</tspan></text>
   <text x="504.59" y="268.23">10<tspan dy="-6.4" font-size="8">12</tspan></text>
   <text x="542.54" y="268.23">10<tspan dy="-6.4" font-size="8">11</tspan></text>
   <text x="580.5" y="268.23">10<tspan dy="-6.4" font-size="8">10</tspan></text>
   <text x="618.46" y="268.23">10<tspan dy="-6.4" font-size="8">9</tspan></text>
   <text x="656.41" y="268.23">10<tspan dy="-6.4" font-size="8">8</tspan></text>
   <text x="694.37" y="268.23">10<tspan dy="-6.4" font-size="8">7</tspan></text>
   <text x="732.33" y="268.23">10<tspan dy="-6.4" font-size="8">6</tspan></text>
   <text x="770.29" y="268.23">10<tspan dy="-6.4" font-size="8">5</tspan></text>
   <text x="808.24" y="268.23">10<tspan dy="-6.4" font-size="8">4</tspan></text>
   <text x="846.2" y="268.23">10<tspan dy="-6.4" font-size="8">3</tspan></text>
   <text x="884.16" y="268.23">10<tspan dy="-6.4" font-size="8">2</tspan></text>
   <text x="147.32" y="280">(1 Zetta-Hz)</text>
   <text x="264.28" y="280">(1 Exa-Hz)</text>
   <text x="376.43" y="280">(1 Peta-Hz)</text>
   <text x="490.97" y="280">(1 Tera-Hz)</text>
   <text x="603.88" y="280">(1 Giga-Hz)</text>
   <text x="715.75" y="280">(1 Mega-Hz)</text>
   <text x="833.92" y="280">(1 Kilo-Hz)</text>
  </g>
 </g>
</svg>
